<svg width="55" height="60" viewBox="0 0 55 60" fill="none" xmlns="http://www.w3.org/2000/svg">
<path fill-rule="evenodd" clip-rule="evenodd" d="M25.81 25.6995L26.5313 25.7703L26.5425 25.772C26.2865 25.7331 26.0448 25.6966 25.81 25.6995ZM25.4121 30.1191C24.9169 29.912 24.5115 29.2095 24.5115 29.2095C24.5115 29.2095 25.5835 29.1963 27.4979 29.1963C29.4124 29.1963 30.4844 29.2095 30.4844 29.2095C30.4844 29.2095 30.079 29.912 29.5838 30.1191C29.0885 30.3263 28.1498 30.4957 27.4979 30.4957C26.8461 30.4957 25.9073 30.3263 25.4121 30.1191ZM10.2286 59.0827V48.1676V37.2526H27.4979H44.7673V48.1676V59.0827H27.4979H10.2286Z" fill="black"/>
<path fill-rule="evenodd" clip-rule="evenodd" d="M25.6508 0.863747C24.9205 0.973677 23.7301 1.26085 23.0053 1.5015C22.2808 1.74241 20.9585 2.41134 20.0672 2.98776C19.1759 3.56418 17.8274 4.67075 17.0704 5.44676C16.3131 6.22276 15.2398 7.52763 14.6849 8.34652C14.1297 9.16514 13.3181 10.5446 12.8813 11.4116C12.4445 12.2785 11.6689 14.191 11.1575 15.6611C10.6459 17.1316 9.99412 19.4811 9.70872 20.8824C9.36489 22.5717 9.19272 24.4243 9.19843 26.3784C9.20466 28.5583 9.32957 29.6649 9.67807 30.6256C9.93725 31.3403 10.2232 32.1005 10.3133 32.3149C10.4356 32.6059 9.95672 32.9511 8.42222 33.6772C7.15597 34.2765 5.76534 35.2076 4.79852 36.1032C3.93583 36.9026 2.87474 38.1778 2.44054 38.9372C2.0066 39.6965 1.41918 41.2257 1.1356 42.3351C0.700361 44.0381 0.620117 45.217 0.620117 49.8985V55.4443H4.51234H8.40456L8.4726 45.5039L8.54064 35.5634H13.2849H18.0289L17.3101 35.0509C16.9146 34.7689 15.922 33.9064 15.1045 33.1338C14.287 32.3609 13.3228 31.1361 12.9621 30.4115C12.5632 29.6108 12.3061 28.6516 12.3061 27.9655C12.3061 27.335 12.5484 26.3534 12.8549 25.7425C13.1566 25.1408 13.6443 24.3851 13.9388 24.0636C14.2333 23.7422 14.5519 23.4789 14.647 23.4789C14.742 23.4789 14.9552 23.7767 15.1209 24.1408C15.2868 24.5049 15.4224 25.1234 15.4224 25.5153C15.4224 25.907 15.6304 26.6326 15.8849 27.1274C16.1391 27.6219 17.3511 29.3156 18.5781 30.891C20.3178 33.1244 21.1166 33.9256 22.2057 34.5293C23.5813 35.2918 23.6616 35.3035 27.4979 35.3035C31.3359 35.3035 31.4138 35.2921 32.7927 34.5278C33.9047 33.9116 34.6919 33.1106 36.6237 30.6295C37.9606 28.9122 39.1616 27.1562 39.2923 26.7274C39.4229 26.2986 39.5995 25.5296 39.6849 25.0184C39.7701 24.5073 39.9913 23.8815 40.1765 23.6281C40.4827 23.2091 40.6052 23.3009 41.5206 24.631C42.3384 25.8191 42.5485 26.3776 42.6368 27.5991C42.7256 28.8288 42.6269 29.3374 42.0961 30.3845C41.739 31.0888 40.7623 32.3118 39.9259 33.1018C39.0894 33.8918 38.0813 34.7689 37.6858 35.0509L36.967 35.5634H41.711H46.4553L46.5233 45.5039L46.5913 55.4443H50.4836H54.3758V49.8085C54.3758 45.5002 54.2771 43.771 53.9566 42.4669C53.7263 41.5287 53.1732 40.0593 52.7278 39.2017C52.2824 38.3441 51.3179 37.0486 50.5843 36.3228C49.8507 35.5969 48.7382 34.7076 48.1126 34.3461C47.4867 33.9849 46.414 33.4789 45.7286 33.2219C44.7652 32.8604 44.5239 32.6605 44.665 32.3398C44.7649 32.1116 45.0698 31.2946 45.342 30.5238C45.7105 29.4809 45.8372 28.4141 45.8372 26.3529C45.8372 24.5811 45.6448 22.6384 45.3028 20.9591C45.0088 19.5154 44.35 17.1316 43.8384 15.6611C43.327 14.191 42.5513 12.2785 42.1146 11.4116C41.6778 10.5446 40.8662 9.16514 40.311 8.34652C39.7561 7.52763 38.6828 6.22276 37.9255 5.44676C37.1685 4.67075 35.8031 3.55326 34.891 2.96333C33.979 2.3734 32.4681 1.6686 31.534 1.39702C30.5997 1.12545 29.1924 0.849454 28.4069 0.783704C27.6213 0.717954 26.381 0.754077 25.6508 0.863747ZM19.5774 21.0607C19.5774 21.7489 19.7753 22.2278 20.2752 22.7499C20.9016 23.4043 21.1483 23.4789 22.6854 23.4789H24.398L25.9403 21.9191L27.4829 20.3593L29.0556 21.9191L30.6282 23.4789H32.3256C33.8463 23.4789 34.0953 23.403 34.7207 22.7499C35.2206 22.2278 35.4185 21.7489 35.4185 21.0607C35.4185 20.5326 35.3974 20.1004 35.3974 20.1004C35.3974 20.1004 36.2552 20.305 36.6943 20.5552C37.1916 20.8385 37.4934 21.2185 37.4944 21.5631C37.4952 21.8671 37.3337 22.2507 37.1353 22.4152C36.9371 22.58 36.6917 23.3838 36.5904 24.2014C36.4362 25.4444 36.1882 25.9738 35.0778 27.433C34.2499 28.5209 33.7305 29.5362 33.7305 29.5362C33.7305 29.5362 33.4708 28.4282 33.3448 28.0788C33.2366 27.7785 33.1677 27.276 32.9558 26.8662C32.7237 26.4163 32.2344 26.0174 31.7223 25.8597C31.3473 25.7442 30.9749 25.7045 29.4456 25.6995C28.9262 25.7194 28.0604 25.8597 27.4413 25.8597C27.1198 25.8597 26.8246 25.8149 26.5464 25.7726L26.5425 25.772L26.5313 25.7703L25.81 25.6995C23.8623 25.6995 23.1301 25.7826 22.5176 26.3958C22.0219 26.8919 21.7676 27.4676 21.6677 28.32L21.5251 29.5362L20.061 27.6121C18.8446 26.0138 18.5641 25.4457 18.4054 24.2585C18.3005 23.4724 18.0536 22.5984 17.8572 22.3165C17.6607 22.0347 17.4999 21.6174 17.4999 21.3892C17.4999 21.161 17.8798 20.7852 18.3439 20.5539C18.808 20.3229 19.5774 20.112 19.5774 20.112V21.0607ZM31.7182 29.6784C31.4195 28.959 30.9321 28.2152 30.635 28.0253C30.3379 27.8353 29.3352 27.6212 28.4069 27.5494C27.4785 27.478 26.2514 27.5016 25.6801 27.6022C25.1088 27.7028 24.4832 27.8831 24.2897 28.0029C24.0963 28.123 23.7189 28.7036 23.4515 29.2932C23.1837 29.8832 22.9622 30.5763 22.9591 30.8333C22.9555 31.134 23.3471 31.4796 24.0571 31.8021C24.8743 32.1732 25.7526 32.305 27.4413 32.3092C28.9073 32.3128 30.0598 32.1738 30.6674 31.9196C31.1876 31.7021 31.7589 31.4029 31.9371 31.2551C32.1923 31.043 32.1459 30.7083 31.7182 29.6784Z" fill="black"/>
</svg>
