<svg width="32" height="32" viewBox="0 0 32 32" fill="none" xmlns="http://www.w3.org/2000/svg">
<path d="M2.03189 23V7.49H8.76389C10.4652 7.49 11.7779 7.90067 12.7019 8.722C13.6259 9.52867 14.0879 10.6653 14.0879 12.132C14.0879 13.2907 13.7872 14.2513 13.1859 15.014C12.5846 15.762 11.7192 16.268 10.5899 16.532C11.3379 16.7667 11.9539 17.3313 12.4379 18.226L15.0339 23H11.9319L9.24789 18.05C8.98389 17.566 8.66856 17.236 8.30189 17.06C7.94989 16.884 7.49522 16.796 6.93789 16.796H4.84789V23H2.03189ZM4.84789 14.706H8.27989C10.3332 14.706 11.3599 13.87 11.3599 12.198C11.3599 10.5407 10.3332 9.712 8.27989 9.712H4.84789V14.706ZM23.5599 23.22C21.4333 23.22 19.8053 22.67 18.6759 21.57C17.5613 20.4553 17.0039 18.8127 17.0039 16.642V7.49H19.8199V16.62C19.8199 18.0133 20.1353 19.062 20.7659 19.766C21.4113 20.4553 22.3426 20.8 23.5599 20.8C26.0386 20.8 27.2779 19.4067 27.2779 16.62V7.49H30.0719V16.642C30.0719 18.8127 29.5219 20.4553 28.4219 21.57C27.3219 22.67 25.7013 23.22 23.5599 23.22Z" fill="#74A2B2"/>
</svg>
